<?xml version="1.0" encoding="UTF-8" standalone="no"?>
<!-- Created with Inkscape (http://www.inkscape.org/) -->
<svg
   xmlns:svg="http://www.w3.org/2000/svg"
   xmlns="http://www.w3.org/2000/svg"
   xmlns:xlink="http://www.w3.org/1999/xlink"
   version="1.0"
   width="600"
   height="188"
   id="svg2">
  <defs
     id="defs5">
    <linearGradient
       id="linearGradient2828">
      <stop
         style="stop-color:#ddebdf;stop-opacity:1"
         offset="0"
         id="stop2830" />
      <stop
         style="stop-color:#edfdf8;stop-opacity:1"
         offset="1"
         id="stop2832" />
    </linearGradient>
    <linearGradient
       id="linearGradient2836">
      <stop
         style="stop-color:#edfdf8;stop-opacity:1"
         offset="0"
         id="stop2839" />
      <stop
         style="stop-color:#edfdf8;stop-opacity:1"
         offset="0.11266927"
         id="stop2853" />
      <stop
         style="stop-color:#a2d1c6;stop-opacity:1"
         offset="0.18583558"
         id="stop2851" />
      <stop
         style="stop-color:#a2d1c6;stop-opacity:1"
         offset="0.30777946"
         id="stop2841" />
      <stop
         style="stop-color:#92b7d6;stop-opacity:1"
         offset="0.40082908"
         id="stop2843" />
      <stop
         style="stop-color:#92b7d6;stop-opacity:1"
         offset="0.625"
         id="stop2845" />
      <stop
         style="stop-color:#7595bf;stop-opacity:1"
         offset="0.7254464"
         id="stop2847" />
      <stop
         style="stop-color:#7595bf;stop-opacity:1"
         offset="1"
         id="stop2849" />
    </linearGradient>
    <linearGradient
       id="linearGradient2866">
      <stop
         style="stop-color:#a2d1c6;stop-opacity:1"
         offset="0"
         id="stop2868" />
      <stop
         style="stop-color:#a2d1c6;stop-opacity:1"
         offset="0.30777946"
         id="stop2876" />
      <stop
         style="stop-color:#92b7d6;stop-opacity:1"
         offset="0.40082908"
         id="stop2874" />
      <stop
         style="stop-color:#92b7d6;stop-opacity:1"
         offset="0.625"
         id="stop2880" />
      <stop
         style="stop-color:#7595bf;stop-opacity:1"
         offset="0.7254464"
         id="stop2878" />
      <stop
         style="stop-color:#7595bf;stop-opacity:1"
         offset="1"
         id="stop2870" />
    </linearGradient>
    <linearGradient
       id="linearGradient2834">
      <stop
         style="stop-color:#a9cfcd;stop-opacity:1"
         offset="0"
         id="stop2836" />
      <stop
         style="stop-color:#eefef9;stop-opacity:1"
         offset="1"
         id="stop2838" />
    </linearGradient>
    <linearGradient
       id="linearGradient2806">
      <stop
         style="stop-color:#7595bf;stop-opacity:1"
         offset="0"
         id="stop2808" />
      <stop
         style="stop-color:#7595bf;stop-opacity:1"
         offset="0.875"
         id="stop2814" />
      <stop
         style="stop-color:#92b7d6;stop-opacity:1"
         offset="1"
         id="stop2810" />
    </linearGradient>
    <linearGradient
       id="linearGradient3774">
      <stop
         style="stop-color:#455b2e;stop-opacity:1"
         offset="0"
         id="stop3776" />
      <stop
         style="stop-color:#455b2e;stop-opacity:1"
         offset="0.85714287"
         id="stop2804" />
      <stop
         style="stop-color:#768465;stop-opacity:1"
         offset="1"
         id="stop3778" />
    </linearGradient>
    <linearGradient
       id="linearGradient2865">
      <stop
         style="stop-color:#8bc0c6;stop-opacity:1"
         offset="0"
         id="stop2867" />
      <stop
         style="stop-color:#8bc0c6;stop-opacity:1"
         offset="0.6785714"
         id="stop2852" />
      <stop
         style="stop-color:#eefef9;stop-opacity:1"
         offset="1"
         id="stop2869" />
    </linearGradient>
    <linearGradient
       id="linearGradient2791">
      <stop
         style="stop-color:#c7edef;stop-opacity:1"
         offset="0"
         id="stop2793" />
      <stop
         style="stop-color:#eefef9;stop-opacity:1"
         offset="1"
         id="stop2795" />
    </linearGradient>
    <linearGradient
       x1="130.51373"
       y1="105.38046"
       x2="130.51373"
       y2="103.52637"
       id="linearGradient2797"
       xlink:href="#linearGradient2791"
       gradientUnits="userSpaceOnUse"
       gradientTransform="translate(-40,0)" />
    <linearGradient
       x1="136.86935"
       y1="126.10735"
       x2="136.20644"
       y2="125.44443"
       id="linearGradient2819"
       xlink:href="#linearGradient2791"
       gradientUnits="userSpaceOnUse" />
    <linearGradient
       x1="145.664"
       y1="117.13592"
       x2="144.95689"
       y2="116.34042"
       id="linearGradient2827"
       xlink:href="#linearGradient2791"
       gradientUnits="userSpaceOnUse" />
    <linearGradient
       x1="145.664"
       y1="117.13592"
       x2="144.95689"
       y2="116.34042"
       id="linearGradient2831"
       xlink:href="#linearGradient2791"
       gradientUnits="userSpaceOnUse"
       gradientTransform="translate(57.27565,-0.574526)" />
    <linearGradient
       x1="145.70819"
       y1="115.67751"
       x2="144.8685"
       y2="114.83782"
       id="linearGradient2835"
       xlink:href="#linearGradient2791"
       gradientUnits="userSpaceOnUse"
       gradientTransform="translate(46.66904,13.39083)" />
    <linearGradient
       x1="384.31253"
       y1="95.701752"
       x2="389.96939"
       y2="90.044899"
       id="linearGradient3790"
       xlink:href="#linearGradient2791"
       gradientUnits="userSpaceOnUse" />
    <radialGradient
       cx="296.45197"
       cy="135.71054"
       r="16.330547"
       fx="296.45197"
       fy="135.71054"
       id="radialGradient2802"
       xlink:href="#linearGradient3774"
       gradientUnits="userSpaceOnUse"
       gradientTransform="matrix(3.179595,-0.778724,0.527512,2.153864,-713.3919,81.40284)" />
    <radialGradient
       cx="344.74722"
       cy="148.90628"
       r="40.600868"
       fx="344.74722"
       fy="148.90628"
       id="radialGradient2812"
       xlink:href="#linearGradient2806"
       gradientUnits="userSpaceOnUse"
       gradientTransform="matrix(2.385977,-5.544466e-2,1.948968e-2,0.838658,-472.8599,37.03575)" />
    <linearGradient
       x1="149.875"
       y1="149.12808"
       x2="150.25"
       y2="144.12808"
       id="linearGradient2832"
       xlink:href="#linearGradient2834"
       gradientUnits="userSpaceOnUse" />
    <radialGradient
       cx="304.25998"
       cy="120.5285"
       r="4.703938"
       fx="304.25998"
       fy="120.5285"
       id="radialGradient2850"
       xlink:href="#linearGradient2865"
       gradientUnits="userSpaceOnUse"
       gradientTransform="matrix(3.258839,0.608807,-0.413396,2.212837,-642.2335,-327.2127)" />
    <radialGradient
       cx="301.90271"
       cy="119.65045"
       r="59.033546"
       fx="301.90271"
       fy="119.65045"
       id="radialGradient2872"
       xlink:href="#linearGradient2866"
       gradientUnits="userSpaceOnUse"
       gradientTransform="matrix(-2.466121,0.697207,-0.195589,-0.691826,979.454,13.06977)" />
    <radialGradient
       cx="431.13171"
       cy="31.938066"
       r="120.5192"
       fx="431.13171"
       fy="31.938066"
       id="radialGradient2834"
       xlink:href="#linearGradient2836"
       gradientUnits="userSpaceOnUse"
       gradientTransform="matrix(5.042145,-1.85077,0.154371,0.420566,-1751.807,836.959)" />
    <linearGradient
       x1="192.62421"
       y1="65.521515"
       x2="197.375"
       y2="62.021515"
       id="linearGradient2837"
       xlink:href="#linearGradient2828"
       gradientUnits="userSpaceOnUse" />
    <radialGradient
       cx="299.45367"
       cy="135.21065"
       r="16.330547"
       fx="299.45367"
       fy="135.21065"
       id="radialGradient3766"
       xlink:href="#linearGradient3774"
       gradientUnits="userSpaceOnUse"
       gradientTransform="matrix(3.179595,-0.778724,0.527512,2.153864,-525.2428,96.99191)" />
    <linearGradient
       x1="514.32574"
       y1="129.91866"
       x2="515.55347"
       y2="125.32247"
       id="linearGradient3792"
       xlink:href="#linearGradient2791"
       gradientUnits="userSpaceOnUse" />
    <radialGradient
       cx="304.25998"
       cy="120.5285"
       r="4.703938"
       fx="304.25998"
       fy="120.5285"
       id="radialGradient3825"
       xlink:href="#linearGradient2865"
       gradientUnits="userSpaceOnUse"
       gradientTransform="matrix(3.258839,0.608807,-0.413396,2.212837,-450.2691,-319.1206)" />
    <linearGradient
       x1="192.62421"
       y1="65.521515"
       x2="197.375"
       y2="62.021515"
       id="linearGradient5667"
       xlink:href="#linearGradient2828"
       gradientUnits="userSpaceOnUse" />
    <linearGradient
       x1="130.51373"
       y1="105.38046"
       x2="130.51373"
       y2="103.52637"
       id="linearGradient5669"
       xlink:href="#linearGradient2791"
       gradientUnits="userSpaceOnUse"
       gradientTransform="translate(-40,0)" />
    <linearGradient
       x1="145.664"
       y1="117.13592"
       x2="144.95689"
       y2="116.34042"
       id="linearGradient5671"
       xlink:href="#linearGradient2791"
       gradientUnits="userSpaceOnUse" />
    <linearGradient
       x1="136.86935"
       y1="126.10735"
       x2="136.20644"
       y2="125.44443"
       id="linearGradient5673"
       xlink:href="#linearGradient2791"
       gradientUnits="userSpaceOnUse" />
    <linearGradient
       x1="145.664"
       y1="117.13592"
       x2="144.95689"
       y2="116.34042"
       id="linearGradient5675"
       xlink:href="#linearGradient2791"
       gradientUnits="userSpaceOnUse"
       gradientTransform="translate(57.27565,-0.574526)" />
    <linearGradient
       x1="145.70819"
       y1="115.67751"
       x2="144.8685"
       y2="114.83782"
       id="linearGradient5677"
       xlink:href="#linearGradient2791"
       gradientUnits="userSpaceOnUse"
       gradientTransform="translate(46.66904,13.39083)" />
    <radialGradient
       cx="296.45197"
       cy="135.71054"
       r="16.330547"
       fx="296.45197"
       fy="135.71054"
       id="radialGradient5679"
       xlink:href="#linearGradient3774"
       gradientUnits="userSpaceOnUse"
       gradientTransform="matrix(3.179595,-0.778724,0.527512,2.153864,-713.3919,81.40284)" />
    <linearGradient
       x1="384.31253"
       y1="95.701752"
       x2="389.96939"
       y2="90.044899"
       id="linearGradient5681"
       xlink:href="#linearGradient2791"
       gradientUnits="userSpaceOnUse" />
    <radialGradient
       cx="344.74722"
       cy="148.90628"
       r="40.600868"
       fx="344.74722"
       fy="148.90628"
       id="radialGradient5683"
       xlink:href="#linearGradient2806"
       gradientUnits="userSpaceOnUse"
       gradientTransform="matrix(2.385977,-5.544466e-2,1.948968e-2,0.838658,-472.8599,37.03575)" />
    <radialGradient
       cx="304.25998"
       cy="120.5285"
       r="4.703938"
       fx="304.25998"
       fy="120.5285"
       id="radialGradient5685"
       xlink:href="#linearGradient2865"
       gradientUnits="userSpaceOnUse"
       gradientTransform="matrix(3.258839,0.608807,-0.413396,2.212837,-642.2335,-327.2127)" />
    <linearGradient
       x1="149.875"
       y1="149.12808"
       x2="150.25"
       y2="144.12808"
       id="linearGradient5687"
       xlink:href="#linearGradient2834"
       gradientUnits="userSpaceOnUse" />
    <radialGradient
       cx="301.90271"
       cy="119.65045"
       r="59.033546"
       fx="301.90271"
       fy="119.65045"
       id="radialGradient5689"
       xlink:href="#linearGradient2866"
       gradientUnits="userSpaceOnUse"
       gradientTransform="matrix(-2.466121,0.697207,-0.195589,-0.691826,979.454,13.06977)" />
    <radialGradient
       cx="431.13171"
       cy="31.938066"
       r="120.5192"
       fx="431.13171"
       fy="31.938066"
       id="radialGradient5691"
       xlink:href="#linearGradient2836"
       gradientUnits="userSpaceOnUse"
       gradientTransform="matrix(5.042145,-1.85077,0.154371,0.420566,-1751.807,836.959)" />
    <radialGradient
       cx="299.45367"
       cy="135.21065"
       r="16.330547"
       fx="299.45367"
       fy="135.21065"
       id="radialGradient5693"
       xlink:href="#linearGradient3774"
       gradientUnits="userSpaceOnUse"
       gradientTransform="matrix(3.179595,-0.778724,0.527512,2.153864,-525.2428,96.99191)" />
    <linearGradient
       x1="514.32574"
       y1="129.91866"
       x2="515.55347"
       y2="125.32247"
       id="linearGradient5695"
       xlink:href="#linearGradient2791"
       gradientUnits="userSpaceOnUse" />
    <radialGradient
       cx="304.25998"
       cy="120.5285"
       r="4.703938"
       fx="304.25998"
       fy="120.5285"
       id="radialGradient5697"
       xlink:href="#linearGradient2865"
       gradientUnits="userSpaceOnUse"
       gradientTransform="matrix(3.258839,0.608807,-0.413396,2.212837,-450.2691,-319.1206)" />
  </defs>
  <g
     transform="translate(2.068764,-0.222374)"
     id="g5603">
    <path
       d="M 182.25677,133.53196 C 182.77285,136.00478 182.81768,138.39867 182.25677,141.48691 C 171.2955,140.67001 98.465397,136.29575 94.575532,134.94618 C 92.228009,134.13172 84.294265,133.90674 82.37794,135.29973 C 80.546768,136.63082 76.805134,138.42928 75.837202,140.24948 C 73.401542,144.82974 78.554655,147.50681 83.085047,147.14377 C 88.241394,146.73057 179.66791,156.56412 179.07479,157.75037 C 177.82479,159.83124 178.40966,164.65216 181.90322,166.41243 C 192.36,171.68121 277.43314,174.86769 283.01949,168.8873 C 284.93259,180.62775 291.71895,185.3346 298.57584,179.67068 C 302.43252,181.20338 308.33237,181.26217 312.45281,179.40551 C 314.2795,180.48914 316.1062,180.65282 317.93289,179.40551 C 335.69038,185.05351 335.61347,163.92706 330.92597,157.4852 C 346.36054,149.98988 359.67762,144.08266 372.4685,138.5701 C 384.93432,141.83622 397.68024,142.02128 410.47549,141.66369 C 410.79042,142.85137 411.6201,143.52428 412.59681,144.05018 C 411.07289,144.96352 410.48935,145.87687 409.94516,146.79021 C 408.64013,144.60178 393.56709,135.64526 392.00232,155.54066 C 391.04892,167.66272 397.93864,181.32281 408.44256,168.79891 C 415.18849,171.66979 420.02676,171.36123 423.77793,169.24085 C 423.77793,169.24085 438.44496,179.20223 441.05786,158.72264 C 443.268,141.39978 426.68007,142.5496 421.61242,150.06058 C 421.72046,148.36152 421.76387,147.11483 421.7892,145.99472 C 434.79524,144.66123 435.74892,141.31902 437.08038,138.03977 C 439.45163,137.87823 441.97132,137.56825 443.70951,138.03977 C 444.28078,142.33672 443.05002,145.72544 454.66966,145.72955 C 455.55765,150.16234 449.0964,151.37624 451.84123,153.41934 C 455.66565,156.26603 463.23742,151.59958 465.18787,148.99992 C 474.71348,149.30368 483.84208,149.21042 490.73211,146.8786 C 491.03761,152.57615 525.16316,155.37672 530.15331,144.93406 C 536.89477,146.68406 588.81153,161.14895 593.26259,144.84567 C 594.35836,140.8321 590.39472,139.0583 581.24177,137.0675 C 569.56974,134.52879 515.78314,120.76691 515.56923,120.98082 C 521.47108,97.974397 499.50515,104.92583 479.59518,109.66711 C 476.03956,107.09085 461.9206,105.4749 451.75,103.5 C 470.48041,96.367662 491.08538,85.534972 507.5,77.25 C 503.7185,98.037614 518.72712,91.388185 523,88 C 530.6342,92.72684 536.97363,88.149192 536.75,75.75 C 536.6418,69.750905 535.137,67 532.75,62.75 C 549.01207,46.594819 562.75751,32.635934 557,26.25 C 538.02339,5.2021207 505.85616,2.569209 479.5,10.5 C 401.30707,34.028915 331.78048,72.553215 280.19106,93.933983 C 273.9365,94.525312 258.00408,94.891575 223.15285,94.817866 C 218.0736,86.543441 186.37474,36.90675 180.12289,32.8728 C 175.83836,30.108242 172.62244,30.824702 169.26369,32.327304 C 165.90493,33.829906 161.41788,34.835711 163.78361,46.115886 C 164.67274,50.355393 173.84354,79.529752 178.89802,94.287536 C 161.36805,94.097479 41.265614,92.828511 30.228815,93.933983 C 22.533697,94.704744 14.248511,100.10009 9.0156115,104.36381 C -6.5073593,117.01178 9.7978505,119.34798 13.188709,119.38983 C 30.152797,119.59921 58.402749,122.99437 95.812969,123.45569 C 97.644731,127.39188 100.05282,129.9833 102.88404,131.58742 C 111.8864,130.90498 119.95872,130.92007 127.63277,131.23387 C 130.33826,135.17128 133.45383,135.21289 136.82516,132.82486 C 151.74132,132.37743 167.01982,133.01702 182.25677,133.53196 z "
       style="fill:black;fill-opacity:1;fill-rule:evenodd;stroke:none;stroke-width:1px;stroke-linecap:butt;stroke-linejoin:miter;stroke-opacity:1"
       id="path1891" />
    <path
       d="M 485,20.875 L 488.5,16.75 L 492.625,18.375 L 490.875,22.625 L 485,20.875 z "
       style="fill:#5effc2;fill-opacity:1;fill-rule:evenodd;stroke:none;stroke-width:1px;stroke-linecap:butt;stroke-linejoin:miter;stroke-opacity:1"
       id="path2779" />
    <path
       d="M 500.5,22.125 L 503.125,18.375 L 510.5,18.5 L 508.5,22 L 500.5,22.125 z "
       style="fill:#5effc2;fill-opacity:1;fill-rule:evenodd;stroke:none;stroke-width:1px;stroke-linecap:butt;stroke-linejoin:miter;stroke-opacity:1"
       id="path2781" />
    <path
       d="M 521.125,22.75 C 521.6886,15.440594 530.50893,16.115799 537.875,17.25 C 535.83654,20.333333 527.01193,20.916667 521.125,22.75 z "
       style="fill:#5effc2;fill-opacity:1;fill-rule:evenodd;stroke:none;stroke-width:1px;stroke-linecap:butt;stroke-linejoin:miter;stroke-opacity:1"
       id="path2783" />
    <path
       d="M 182.625,94.875 C 194.46159,95.00081 206.01975,95.05702 219.125,95.5 C 212.52063,82.2552 188.29859,48.621012 179.5,36.5 C 177.3513,33.539931 174.9962,33.661485 171.75,34.75 C 168.62356,35.798357 166.875,36.8125 167.5,40.75 C 168.17656,45.012308 176.75,80.875 182.625,94.875 z "
       style="fill:url(#linearGradient5667);fill-opacity:1;fill-rule:evenodd;stroke:none;stroke-width:0.5;stroke-linecap:butt;stroke-linejoin:miter;stroke-miterlimit:4;stroke-dasharray:none;stroke-opacity:1"
       id="path2785" />
    <path
       d="M 6,112.875 C 8.5180787,107.2528 21.77788,98.585435 26.375,98.125 C 26.200113,103.24309 10.377497,112.9582 6,112.875 z "
       style="fill:#94b9d2;fill-opacity:1;fill-rule:evenodd;stroke:none;stroke-width:1px;stroke-linecap:butt;stroke-linejoin:miter;stroke-opacity:1"
       id="path2787" />
    <path
       d="M 9.75,114.75 C 20.951923,108.13105 26.76317,102.71004 30.5,97.75 C 120.97191,96.782444 221.44113,99.003268 282,97.125 C 278.46447,105.35842 266.07245,120.27208 242,120.625 C 223.41379,120.89749 211.58329,120.15583 205.25,119.8125 C 208.0383,115.36299 212.25601,110.54482 208.1875,109.0625 C 205.19533,107.97234 201.04551,113.4268 192.4375,120.0625 C 178.28888,119.90056 164.85884,119.5949 148.5,119.875 C 153.44673,114.92676 157.32333,111.15711 154.25,108.75 C 151.76179,106.80117 143.09084,113.54403 135.5,121.375 C 90.70752,120.36764 54.564651,116.08075 9.75,114.75 z "
       style="fill:url(#linearGradient5669);fill-opacity:1;fill-rule:evenodd;stroke:none;stroke-width:0.40000001;stroke-linecap:butt;stroke-linejoin:miter;stroke-miterlimit:4;stroke-dasharray:none;stroke-opacity:1"
       id="path2789" />
    <path
       d="M 141.95169,119.65499 C 142.71557,117.2333 147.58565,113.83026 149.37631,113.5562 C 149.19868,115.94195 143.91664,119.19266 141.95169,119.65499 z "
       style="fill:url(#linearGradient5671);fill-opacity:1;fill-rule:evenodd;stroke:none;stroke-width:0.30000001;stroke-linecap:butt;stroke-linejoin:miter;stroke-miterlimit:4;stroke-dasharray:none;stroke-opacity:1"
       id="path2801" />
    <path
       d="M 134.17351,129.24512 C 134.31867,127.00021 137.24421,123.24362 139.5652,122.43923 C 139.03401,124.47142 136.40362,127.89891 134.17351,129.24512 z "
       style="fill:url(#linearGradient5673);fill-opacity:1;fill-rule:evenodd;stroke:none;stroke-width:0.30000001;stroke-linecap:butt;stroke-linejoin:miter;stroke-miterlimit:4;stroke-dasharray:none;stroke-opacity:1"
       id="path2803" />
    <path
       d="M 198.7412,120.00854 C 199.15153,117.54265 204.15419,113.29992 205.94485,113.02586 C 205.76722,115.94194 201.59004,119.01588 198.7412,120.00854 z "
       style="fill:url(#linearGradient5675);fill-opacity:1;fill-rule:evenodd;stroke:none;stroke-width:0.30000001;stroke-linecap:butt;stroke-linejoin:miter;stroke-miterlimit:4;stroke-dasharray:none;stroke-opacity:1"
       id="path2829" />
    <path
       d="M 187.69265,133.44357 C 188.45653,130.62413 194.56405,123.86233 197.06182,123.67666 C 196.66322,126.01822 189.6576,132.98124 187.69265,133.44357 z "
       style="fill:url(#linearGradient5677);fill-opacity:1;fill-rule:evenodd;stroke:none;stroke-width:0.30000001;stroke-linecap:butt;stroke-linejoin:miter;stroke-miterlimit:4;stroke-dasharray:none;stroke-opacity:1"
       id="path2833" />
    <path
       d="M 132.84769,124.95829 C 132.42287,125.75379 132.1535,126.54928 131.96381,127.34478 C 131.33512,127.34478 105.25985,127.29924 104.12147,127.07961 C 101.04138,126.48535 102.26531,124.07441 103.1492,124.07441 C 104.92579,124.07442 126.1236,124.60474 132.84769,124.95829 z M 143.10074,122.92536 C 160.53476,123.25655 177.38499,123.32239 192.24466,122.48342 C 189.61797,134.96848 160.31521,128.71977 140.18392,127.9635 C 141.25984,126.59506 142.25983,124.99883 143.10074,122.92536 z M 231.66586,122.74858 C 222.63686,135.96398 208.8425,131.14027 196.04536,130.17321 C 198.38255,127.07438 200.90523,124.30016 204.17708,122.83697 C 214.85473,122.80751 224.05226,122.77804 231.66586,122.74858 z M 232.54974,127.43317 C 234.86351,123.39319 237.09286,123.02069 243.18859,123.04764 C 248.03328,123.06874 250.28911,123.51007 253.14423,128.14027 L 232.54974,127.43317 z M 270.29157,114.88202 C 253.2211,122.57437 253.30632,123.01511 255.44233,125.13507 C 260.03584,129.69406 259.64629,127.01888 270.29157,114.88202 z "
       style="fill:#94b9d2;fill-opacity:1;fill-rule:evenodd;stroke:none;stroke-width:0.30000001;stroke-linecap:butt;stroke-linejoin:miter;stroke-miterlimit:4;stroke-opacity:1"
       id="path2837" />
    <path
       d="M 284.25,96.25 C 284.31167,97.268885 284.32494,98.174871 284.625,99.75 C 307.94367,91.162525 312.36864,90.207627 342.54289,86.875 C 372.96606,70.53416 473.55271,35.352911 518.375,23.625 C 519.79871,15.407862 520.20948,14.269277 531.375,14.875 C 499.59663,-8.9575383 373.7133,55.745541 284.25,96.25 z M 487.19657,14.9148 L 481.80488,22.604586 L 491.70438,25.167848 L 495.3283,16.50579 L 487.19657,14.9148 z M 501.25032,16.594178 L 495.94702,24.107188 L 509.64721,23.753634 L 514.24341,15.887072 L 501.25032,16.594178 z "
       style="fill:white;fill-opacity:1;fill-rule:evenodd;stroke:none;stroke-width:0.40000001;stroke-linecap:butt;stroke-linejoin:miter;stroke-miterlimit:4;stroke-opacity:1"
       id="path2871" />
    <path
       d="M 298.57584,108.60645 C 306.48108,107.5885 313.00481,110.69088 305.1276,121.86536 C 302.9389,124.97021 301.76513,125.88832 302.46492,127.25639 C 302.78406,127.87889 312.13856,126.89267 315.44169,121.01693 C 318.02933,116.41393 316.75625,110.76463 314.70173,108.29395 C 310.72214,103.50826 302.21365,99.312192 298.57584,108.60645 z "
       style="fill:#957110;fill-opacity:1;fill-rule:evenodd;stroke:none;stroke-width:0.30000001;stroke-linecap:butt;stroke-linejoin:miter;stroke-miterlimit:4;stroke-dasharray:none;stroke-opacity:1"
       id="path3766" />
    <path
       d="M 304.32108,100.03278 C 316.28052,88.485815 328.66847,102.31974 319.3471,117.79884 C 319.57469,108.26569 313.86388,101.11968 304.32108,100.03278 z "
       style="fill:#67492f;fill-opacity:1;fill-rule:evenodd;stroke:none;stroke-width:0.30000001;stroke-linecap:butt;stroke-linejoin:miter;stroke-miterlimit:4;stroke-dasharray:none;stroke-opacity:1"
       id="path3768" />
    <path
       d="M 269.625,120.625 C 251.12643,136.16603 259.47873,147.16223 280.75,138.75 C 271.59395,134.36326 271.08969,126.44191 269.625,120.625 z "
       style="fill:#455b2e;fill-opacity:1;fill-rule:evenodd;stroke:none;stroke-width:0.30000001;stroke-linecap:butt;stroke-linejoin:miter;stroke-miterlimit:4;stroke-dasharray:none;stroke-opacity:1"
       id="path3770" />
    <path
       d="M 304.125,95.5 C 291.92435,105.4776 289.90118,129.87136 305.125,130.375 C 304.44681,139.35638 282.64557,137.44343 278.125,133.875 C 271.83679,128.91123 268.625,113.875 280.25,106 C 287.51643,101.07758 295.875,97.25 304.125,95.5 z "
       style="fill:url(#radialGradient5679);fill-opacity:1;fill-rule:evenodd;stroke:none;stroke-width:0.30000001;stroke-linecap:butt;stroke-linejoin:miter;stroke-miterlimit:4;stroke-dasharray:none;stroke-opacity:1"
       id="path3772" />
    <path
       d="M 316.96062,93.580429 C 319.49245,94.406044 321.66215,95.352365 322.44069,96.76241 C 387.37508,88.178061 384.88266,96.53088 384.66609,109.66711 C 432.61334,71.835129 347.06503,91.615997 316.96062,93.580429 z "
       style="fill:url(#linearGradient5681);fill-opacity:1;fill-rule:evenodd;stroke:none;stroke-width:0.30000001;stroke-linecap:butt;stroke-linejoin:miter;stroke-miterlimit:4;stroke-dasharray:none;stroke-opacity:1"
       id="path3782" />
    <path
       d="M 206.375,134.375 C 203.68867,135.21044 198.86622,138.53802 194.25,141.625 C 192.06834,141.97002 189.63801,141.81769 187.125,141.5 C 187.53665,140.53164 187.75238,139.17142 187.5,136.875 C 189.61784,136.11426 191.42376,134.88565 192.875,133.125 C 197.93022,133.31958 202.94992,133.52837 206.375,134.375 z "
       style="fill:#a9cdcd;fill-opacity:1;fill-rule:evenodd;stroke:none;stroke-width:0.30000001;stroke-linecap:butt;stroke-linejoin:miter;stroke-miterlimit:4;stroke-dasharray:none;stroke-opacity:1"
       id="path3792" />
    <path
       d="M 238.82532,130.9687 C 219.4874,142.84616 210.89734,144.54738 196.92924,142.72435 C 204.62446,138.63649 212.5259,132.96758 219.55666,133.9739 C 224.33965,137.1805 225.15952,134.30351 230.07487,130.52676 C 234.05537,131.20592 236.14695,130.94061 238.82532,130.9687 z "
       style="fill:#a9cdcd;fill-opacity:1;fill-rule:evenodd;stroke:none;stroke-width:0.30000001;stroke-linecap:butt;stroke-linejoin:miter;stroke-miterlimit:4;stroke-dasharray:none;stroke-opacity:1"
       id="path3794" />
    <path
       d="M 268.75,146.25 C 280.78502,140.8391 295.68179,140.51549 304.125,136.125 C 303.48079,139.35347 303.68613,142.21785 300.875,146.375 C 289.11755,146.68304 279.45829,146.29168 268.75,146.25 z "
       style="fill:#7595bf;fill-opacity:1;fill-rule:evenodd;stroke:none;stroke-width:0.40000001;stroke-linecap:butt;stroke-linejoin:miter;stroke-miterlimit:4;stroke-dasharray:none;stroke-opacity:1"
       id="path1911" />
    <path
       d="M 301,152.875 C 303.19787,145.2695 304.9232,147.94498 307.25,134.5 C 319.51347,127.07206 326.25942,118.46155 324.5,99.25 C 369.76069,94.948797 379.18255,94.40273 381.93515,103.23234 C 384.50572,111.47804 368.97811,124.47844 313.875,148 C 313.875,148 318.625,133.25 318.25,131.375 C 317.875,129.5 316.25,130.5 315.375,133.125 C 314.5,135.75 309.125,150 309.125,150 C 306.69561,151.23727 303.89705,152.10538 301,152.875 z "
       style="fill:url(#radialGradient5683);fill-opacity:1;fill-rule:evenodd;stroke:none;stroke-width:0.30000001;stroke-linecap:butt;stroke-linejoin:miter;stroke-miterlimit:4;stroke-dasharray:none;stroke-opacity:1"
       id="path2800" />
    <path
       d="M 300.16683,123.80924 C 294.25033,118.91684 296.89655,111.41783 300.97928,110.55217 C 305.97611,109.49269 309.81825,117.1538 300.16683,123.80924 z "
       style="fill:url(#radialGradient5685);fill-opacity:1;fill-rule:evenodd;stroke:none;stroke-width:0.30000001;stroke-linecap:butt;stroke-linejoin:miter;stroke-miterlimit:4;stroke-dasharray:none;stroke-opacity:1"
       id="path2849" />
    <path
       d="M 93.125,138 C 91.78645,140.61586 91.13019,142.55074 89.125,144 C 121.76647,150.68412 191.59298,155.96178 196.75,155.75 C 202.5611,155.50623 209.55608,151.54923 213.375,148.5 C 187.926,139.84903 140.54835,144.81616 93.125,138 z "
       style="fill:url(#linearGradient5687);fill-opacity:1;fill-rule:evenodd;stroke:none;stroke-width:0.30000001;stroke-linecap:butt;stroke-linejoin:miter;stroke-miterlimit:4;stroke-dasharray:none;stroke-opacity:1"
       id="path2816" />
    <path
       d="M 180.84256,158.63425 C 179.24834,166.78212 205.52339,167.66141 248.63382,168.4363 C 264.81943,168.72405 285.22769,163.74382 285.84792,162.16979 C 287.39586,158.24139 288.95227,154.54033 298.75262,154.83355 C 298.63639,152.94955 298.72479,151.2702 298.841,149.61864 C 284.62739,147.55187 277.96747,149.91157 265.96054,148.55798 C 263.44705,152.02716 260.6477,155.36427 258.97786,155.01033 C 256.90877,154.57176 257.20831,151.2998 258.00559,148.02765 C 254.31957,147.76248 251.25431,148.54894 251.02291,147.14377 C 250.39068,143.30461 256.93606,144.37131 256.50299,131.58742 C 252.7918,131.9319 247.94261,132.01858 243.68667,131.49903 C 235.35881,136.01694 226.90532,140.40922 217.87728,144.22695 C 227.39287,149.31494 199.53623,161.10945 180.84256,158.63425 z "
       style="fill:url(#radialGradient5689);fill-opacity:1;fill-rule:evenodd;stroke:none;stroke-width:0.30000001;stroke-linecap:butt;stroke-linejoin:miter;stroke-miterlimit:4;stroke-dasharray:none;stroke-opacity:1"
       id="path2848" />
    <path
       d="M 311.625,151.125 L 320.5,156.625 C 321.63735,153.46685 344.77979,148.8352 353.75871,144.55353 C 364.29091,139.53117 388.5079,127.8043 416.11414,115.33831 C 451.07389,99.551732 483.16695,86.643179 513.125,70.25 C 510.33008,68.666667 508.99547,66.994945 507.60355,65.411612 C 522.03273,54.582903 522.94216,54.514658 530.625,57.5 C 566.06401,31.54486 552.06713,20.365089 535,22.875 C 517.17598,25.496221 388.13448,66.364334 353.18727,85.920973 C 385.29813,81.834065 399.58639,79.72209 400.12314,93.856675 C 400.69244,108.66099 354.47447,136.07337 311.625,151.125 z "
       style="fill:url(#radialGradient5691);fill-opacity:1;fill-rule:evenodd;stroke:none;stroke-width:0.30000001;stroke-linecap:butt;stroke-linejoin:miter;stroke-miterlimit:4;stroke-dasharray:none;stroke-opacity:1"
       id="path1930" />
    <path
       d="M 519.90026,60.434799 C 518.96724,63.82496 517.32608,66.648607 515.21568,69.096857 C 513.27509,68.385799 511.95139,67.057848 510.70787,65.649711 C 513.18521,63.177919 516.49423,61.745731 519.90026,60.434799 z "
       style="fill:#b2cca8;fill-opacity:1;fill-rule:evenodd;stroke:none;stroke-width:0.2;stroke-linecap:butt;stroke-linejoin:miter;stroke-miterlimit:4;stroke-dasharray:none;stroke-opacity:1"
       id="path2839" />
    <path
       d="M 526.08745,59.727692 C 525.36422,63.429301 524.26107,67.22589 521.66803,71.394954 C 520.40407,70.387347 519.45672,68.746515 518.66283,66.79876 C 521.0023,62.410748 523.51347,60.598172 526.08745,59.727692 z "
       style="fill:#b2cca8;fill-opacity:1;fill-rule:evenodd;stroke:none;stroke-width:1px;stroke-linecap:butt;stroke-linejoin:miter;stroke-opacity:1"
       id="path2843" />
    <path
       d="M 529.18104,59.904469 C 529.94636,62.123877 530.23663,64.737721 527.94361,66.003265 C 528.01947,64.194744 528.3984,62.184174 529.18104,59.904469 z "
       style="fill:#afa6a9;fill-opacity:1;fill-rule:evenodd;stroke:none;stroke-width:1px;stroke-linecap:butt;stroke-linejoin:miter;stroke-opacity:1"
       id="path2845" />
    <path
       d="M 517.95572,72.013673 C 517.34228,72.365404 518.94575,75.029294 518.39766,78.907963 C 517.71032,83.771972 515.13305,86.914498 515.56923,87.393245 C 516.06692,87.939507 519.85766,83.602993 520.12123,78.55441 C 520.2314,76.462659 518.73696,71.565729 517.95572,72.013673 z "
       style="fill:#afa6a9;fill-opacity:1;fill-rule:evenodd;stroke:none;stroke-width:0.30000001;stroke-linecap:butt;stroke-linejoin:miter;stroke-miterlimit:4;stroke-dasharray:none;stroke-opacity:1"
       id="path2847" />
    <path
       d="M 531.61172,71.0414 C 534.84299,72.461451 534.24767,75.409548 533.9982,77.49375 C 532.80851,76.49836 532.7108,73.515672 531.61172,71.0414 z "
       style="fill:#afa6a9;fill-opacity:1;fill-rule:evenodd;stroke:none;stroke-width:0.30000001;stroke-linecap:butt;stroke-linejoin:miter;stroke-miterlimit:4;stroke-dasharray:none;stroke-opacity:1"
       id="path2850" />
    <path
       d="M 514.06663,73.516274 C 517.68844,73.852202 514.59123,87.773754 511.50337,86.862915 C 508.24021,85.900369 510.16618,73.154502 514.06663,73.516274 z "
       style="fill:#033583;fill-opacity:1;fill-rule:evenodd;stroke:none;stroke-width:0.40000001;stroke-linecap:butt;stroke-linejoin:miter;stroke-miterlimit:4;stroke-dasharray:none;stroke-opacity:1"
       id="path2852" />
    <path
       d="M 528.53008,73.896393 C 532.13386,73.52724 529.83838,83.029877 528.53008,83.17717 C 527.43667,83.300271 526.55915,74.098285 528.53008,73.896393 z "
       style="fill:#033583;fill-opacity:1;fill-rule:evenodd;stroke:none;stroke-width:0.40000001;stroke-linecap:butt;stroke-linejoin:miter;stroke-miterlimit:4;stroke-dasharray:none;stroke-opacity:1"
       id="path2854" />
    <path
       d="M 79.349894,142.93963 C 82.309913,139.7923 84.697949,138.46117 89.206681,137.5588 C 88.324687,141.26267 83.462226,142.58089 79.349894,142.93963 z "
       style="fill:#94b9d2;fill-opacity:1;fill-rule:evenodd;stroke:none;stroke-width:1px;stroke-linecap:butt;stroke-linejoin:miter;stroke-opacity:1"
       id="path1952" />
    <path
       d="M 290.37499,159 C 291.24724,164.54526 290.06064,171.55794 288.37499,174.625 C 287.38336,169.64077 287.7727,162.80007 290.37499,159 z "
       style="fill:#afa6a9;fill-opacity:1;fill-rule:evenodd;stroke:none;stroke-width:0.30000001;stroke-linecap:butt;stroke-linejoin:miter;stroke-miterlimit:4;stroke-dasharray:none;stroke-opacity:1"
       id="path1958" />
    <path
       d="M 323.49999,157.875 C 326.37391,160.53649 326.83584,165.92082 322.37499,174 C 321.23022,172.34864 321.98585,171.06449 322.37499,165.25 C 322.53706,162.82836 321.74999,160 323.49999,157.875 z "
       style="fill:#afa6a9;fill-opacity:1;fill-rule:evenodd;stroke:none;stroke-width:0.2;stroke-linecap:butt;stroke-linejoin:miter;stroke-miterlimit:4;stroke-dasharray:none;stroke-opacity:1"
       id="path2846" />
    <path
       d="M 295.24999,157.75 C 299.61675,158.73678 298.73399,177.46928 291.37499,178.5 C 292.4043,170.79625 293.56006,163.47188 295.24999,157.75 z "
       style="fill:#033583;fill-opacity:1;fill-rule:evenodd;stroke:none;stroke-width:0.30000001;stroke-linecap:butt;stroke-linejoin:miter;stroke-miterlimit:4;stroke-dasharray:none;stroke-opacity:1"
       id="path2851" />
    <path
       d="M 304.40946,155.62905 C 307.88674,158.39881 306.60116,174.76206 302.99524,177.90292 C 297.45627,171.56517 299.03421,157.62239 304.40946,155.62905 z "
       style="fill:#033583;fill-opacity:1;fill-rule:evenodd;stroke:none;stroke-width:0.30000001;stroke-linecap:butt;stroke-linejoin:miter;stroke-miterlimit:4;stroke-dasharray:none;stroke-opacity:1"
       id="path2853" />
    <path
       d="M 308.47533,154.56839 C 315.04766,153.11008 312.48784,175.74882 308.29855,176.4887 C 306.0155,175.71139 309.60479,165.44748 308.47533,154.56839 z "
       style="fill:#033583;fill-opacity:1;fill-rule:evenodd;stroke:none;stroke-width:0.30000001;stroke-linecap:butt;stroke-linejoin:miter;stroke-miterlimit:4;stroke-dasharray:none;stroke-opacity:1"
       id="path3740" />
    <path
       d="M 316.78383,161.99301 C 322.54703,155.22853 310.86656,154.80726 316.78383,161.99301 z "
       style="fill:#afa6a9;fill-opacity:1;fill-rule:evenodd;stroke:none;stroke-width:0.30000001;stroke-linecap:butt;stroke-linejoin:miter;stroke-miterlimit:4;stroke-dasharray:none;stroke-opacity:1"
       id="path3742" />
    <path
       d="M 316.64557,165.1396 C 324.53009,171.27982 310.0212,172.62632 316.64557,165.1396 z "
       style="fill:#afa6a9;fill-opacity:1;fill-rule:evenodd;stroke:none;stroke-width:0.30000001;stroke-linecap:butt;stroke-linejoin:miter;stroke-miterlimit:4;stroke-dasharray:none;stroke-opacity:1"
       id="path3744" />
    <path
       d="M 314.52451,172.86678 C 319.5806,177.59279 309.66791,179.99995 314.52451,172.86678 z "
       style="fill:#afa6a9;fill-opacity:1;fill-rule:evenodd;stroke:none;stroke-width:0.30000001;stroke-linecap:butt;stroke-linejoin:miter;stroke-miterlimit:4;stroke-dasharray:none;stroke-opacity:1"
       id="path3746" />
    <path
       d="M 328.37499,158.375 C 334.04339,161.41474 334.08318,174.71559 324.62499,178.875 C 325.47446,171.2406 328.15845,165.40025 328.37499,158.375 z "
       style="fill:#033583;fill-opacity:1;fill-rule:evenodd;stroke:none;stroke-width:0.30000001;stroke-linecap:butt;stroke-linejoin:miter;stroke-miterlimit:4;stroke-dasharray:none;stroke-opacity:1"
       id="path3748" />
    <path
       d="M 415.24845,118.50595 L 417.81171,117.3569 C 418.29211,126.95091 417.80406,135.33436 417.36977,143.78501 C 416.60798,144.11334 415.47989,144.07538 414.01101,143.69662 C 411.26739,137.16203 403.71145,131.70338 400.57598,125.93057 L 402.87408,124.07441 C 405.96413,128.23221 410.71046,131.26405 414.45295,134.23907 C 415.33034,129.30081 415.29175,123.90456 415.24845,118.50595 z "
       style="fill:#957110;fill-opacity:1;fill-rule:evenodd;stroke:none;stroke-width:0.30000001;stroke-linecap:butt;stroke-linejoin:miter;stroke-miterlimit:4;stroke-dasharray:none;stroke-opacity:1"
       id="path3754" />
    <path
       d="M 376.18079,136.53716 C 380.01816,134.88725 383.06786,133.41411 385.01963,131.7642 C 390.74282,131.80284 396.62951,131.80723 400.92953,132.82486 C 404.97299,133.05114 406.72572,136.80315 409.06126,139.01204 C 396.94799,137.55922 388.5052,138.44174 376.18079,136.53716 z "
       style="fill:#94b9d2;fill-opacity:1;fill-rule:evenodd;stroke:none;stroke-width:0.30000001;stroke-linecap:butt;stroke-linejoin:miter;stroke-miterlimit:4;stroke-dasharray:none;stroke-opacity:1"
       id="path3756" />
    <path
       d="M 420.55175,135.65328 C 420.53543,138.10187 420.68546,140.92486 420.1982,144.31534 C 425.78858,143.10038 432.04949,142.11248 432.74934,136.36039 C 428.68348,136.48356 424.61761,135.96121 420.55175,135.65328 z "
       style="fill:#94b9d2;fill-opacity:1;fill-rule:evenodd;stroke:none;stroke-width:0.30000001;stroke-linecap:butt;stroke-linejoin:miter;stroke-miterlimit:4;stroke-dasharray:none;stroke-opacity:1"
       id="path3758" />
    <path
       d="M 447.4218,138.48171 C 454.15753,139.52415 456.06299,136.9116 458.73551,142.54758 C 448.41537,141.303 447.44952,144.54208 447.4218,138.48171 z "
       style="fill:#94b9d2;fill-opacity:1;fill-rule:evenodd;stroke:none;stroke-width:0.30000001;stroke-linecap:butt;stroke-linejoin:miter;stroke-miterlimit:4;stroke-dasharray:none;stroke-opacity:1"
       id="path3760" />
    <path
       d="M 492.14631,145.90634 C 495.85861,144.79872 497.97994,143.94561 500.98514,142.01725 C 510.79903,144.10243 510.8723,142.95697 522.90545,145.19923 C 518.72643,151.28369 500.67983,147.81037 492.14631,145.90634 z "
       style="fill:#94b9d2;fill-opacity:1;fill-rule:evenodd;stroke:none;stroke-width:0.30000001;stroke-linecap:butt;stroke-linejoin:miter;stroke-miterlimit:4;stroke-dasharray:none;stroke-opacity:1"
       id="path3762" />
    <path
       d="M 492.27406,111.08905 C 481.84118,124.60218 486.53552,137.50546 498.22381,138.18588 C 494.36364,144.51561 471.32496,148.96662 466.62761,145.39819 C 460.24832,140.55203 456.24373,132.99958 469.28294,122.64971 C 476.15734,117.19316 479.78142,114.60682 492.27406,111.08905 z "
       style="fill:url(#radialGradient5693);fill-opacity:1;fill-rule:evenodd;stroke:none;stroke-width:0.30000001;stroke-linecap:butt;stroke-linejoin:miter;stroke-miterlimit:4;stroke-dasharray:none;stroke-opacity:1"
       id="path3764" />
    <path
       d="M 490.32506,120.35164 C 498.2303,119.33369 500.59978,121.64058 497.49554,129.36791 C 496.07949,132.89286 494.13307,133.39087 494.83286,134.75894 C 495.152,135.38144 502.95974,133.93608 505.7767,127.81237 C 507.56884,123.91648 507.23321,115.38541 504.94835,113.14485 C 502.11112,110.36263 496.43775,108.14058 490.32506,120.35164 z "
       style="fill:#957110;fill-opacity:1;fill-rule:evenodd;stroke:none;stroke-width:0.30000001;stroke-linecap:butt;stroke-linejoin:miter;stroke-miterlimit:4;stroke-dasharray:none;stroke-opacity:1"
       id="path3769" />
    <path
       d="M 389.87499,130.125 C 392.50951,129.00476 396.65061,127.57531 398.62499,126.125 C 399.94209,128.5092 400.09306,129.81114 400.74999,130.875 C 397.45246,130.45914 393.38044,130.24455 389.87499,130.125 z M 405.17218,123.27892 C 407.0141,125.96003 409.63541,128.64115 413.12713,131.32226 C 412.91553,127.32737 412.86832,123.41468 413.12713,119.655 C 410.76299,121.29423 408.00216,122.33844 405.17218,123.27892 z M 420.19819,116.03108 C 430.32008,111.82123 438.40989,108.11939 446.7147,104.36381 C 456.22179,107.4317 470.15122,109.0842 478.71128,113.02587 C 465.37344,120.53033 459.43471,127.25758 457.85163,135.47651 C 444.77677,135.40877 433.09631,134.42464 420.72852,132.47131 C 420.79765,127.60089 420.60029,121.84393 420.19819,116.03108 z M 503.99035,139.71915 C 505.40456,138.8458 506.81878,137.81325 508.23299,136.00684 C 519.27824,140.47613 516.12902,137.33267 528.82747,141.57531 C 520.40144,142.8675 512.18429,141.44414 503.99035,139.71915 z M 515.65761,124.25119 L 509.6472,134.50424 C 523.85436,138.08537 542.46352,139.03401 547.30063,132.4713 L 515.65761,124.25119 z M 552.42716,133.17841 C 593.99052,142.60882 596.17955,144.31157 580.35787,148.38121 C 572.64236,150.36579 548.3845,148.19575 530.68363,143.07791 C 538.33848,139.98158 545.71157,136.74437 552.42716,133.17841 z "
       style="fill:url(#linearGradient5695);fill-opacity:1;fill-rule:evenodd;stroke:none;stroke-width:0.30000001;stroke-linecap:butt;stroke-linejoin:miter;stroke-miterlimit:4;stroke-opacity:1"
       id="path3750" />
    <path
       d="M 399.09249,148.825 C 400.84862,149.95084 399.66202,166.15591 397.62282,166.39454 C 395.57053,165.2994 396.4902,149.61987 399.09249,148.825 z "
       style="fill:#afa6a9;fill-opacity:1;fill-rule:evenodd;stroke:none;stroke-width:0.30000001;stroke-linecap:butt;stroke-linejoin:miter;stroke-miterlimit:4;stroke-dasharray:none;stroke-opacity:1"
       id="path3795" />
    <path
       d="M 402.02294,145.20762 C 409.39491,146.1944 408.8657,172.17474 399.03183,171.79125 C 402.71279,164.0875 402.27756,151.63661 402.02294,145.20762 z "
       style="fill:#033583;fill-opacity:1;fill-rule:evenodd;stroke:none;stroke-width:0.30000001;stroke-linecap:butt;stroke-linejoin:miter;stroke-miterlimit:4;stroke-dasharray:none;stroke-opacity:1"
       id="path3799" />
    <path
       d="M 411.48194,150.2182 C 414.35586,152.87969 414.81779,161.62278 411.77115,166.69675 C 410.62638,165.04539 410.85168,164.1148 411.24082,158.30031 C 411.40289,155.87867 409.73194,152.3432 411.48194,150.2182 z "
       style="fill:#afa6a9;fill-opacity:1;fill-rule:evenodd;stroke:none;stroke-width:0.2;stroke-linecap:butt;stroke-linejoin:miter;stroke-miterlimit:4;stroke-dasharray:none;stroke-opacity:1"
       id="path3813" />
    <path
       d="M 415.31087,147.53108 C 421.8832,144.83534 419.1466,169.94895 415.31087,169.45139 C 413.20459,167.25987 416.97066,166.18835 415.31087,147.53108 z "
       style="fill:#033583;fill-opacity:1;fill-rule:evenodd;stroke:none;stroke-width:0.30000001;stroke-linecap:butt;stroke-linejoin:miter;stroke-miterlimit:4;stroke-dasharray:none;stroke-opacity:1"
       id="path3815" />
    <path
       d="M 423.0654,157.31044 C 429.88926,151.96017 428.63862,163.20617 423.0654,157.31044 z "
       style="fill:#afa6a9;fill-opacity:1;fill-rule:evenodd;stroke:none;stroke-width:0.30000001;stroke-linecap:butt;stroke-linejoin:miter;stroke-miterlimit:4;stroke-dasharray:none;stroke-opacity:1"
       id="path3817" />
    <path
       d="M 431.62183,145.90937 C 444.70908,152.73254 439.14166,171.93106 428.22539,167.82359 C 434.66053,163.82961 434.83679,159.66543 434.53618,156.06353 C 434.23558,152.46162 432.39745,148.89167 431.62183,145.90937 z "
       style="fill:#033583;fill-opacity:1;fill-rule:evenodd;stroke:none;stroke-width:0.30000001;stroke-linecap:butt;stroke-linejoin:miter;stroke-miterlimit:4;stroke-dasharray:none;stroke-opacity:1"
       id="path3819" />
    <path
       d="M 430.39704,150.57175 C 432.38708,153.05647 433.73289,158.4408 430.3327,164.39866 C 429.54148,162.39374 430.29711,160.22571 430.3327,157.06287 C 430.36162,154.63599 428.64704,152.69675 430.39704,150.57175 z "
       style="fill:#afa6a9;fill-opacity:1;fill-rule:evenodd;stroke:none;stroke-width:0.2;stroke-linecap:butt;stroke-linejoin:miter;stroke-miterlimit:4;stroke-dasharray:none;stroke-opacity:1"
       id="path3821" />
    <path
       d="M 492.13122,131.90141 C 488.51282,127.89289 489.03772,123.22231 493.12045,122.35665 C 498.11728,121.29717 496.83289,128.7815 492.13122,131.90141 z "
       style="fill:url(#radialGradient5697);fill-opacity:1;fill-rule:evenodd;stroke:none;stroke-width:0.30000001;stroke-linecap:butt;stroke-linejoin:miter;stroke-miterlimit:4;stroke-dasharray:none;stroke-opacity:1"
       id="path3823" />
    <path
       d="M 260.03851,151.73996 C 259.77241,139.38828 269.5413,144.29812 260.03851,151.73996 z "
       style="fill:#455b2e;fill-opacity:1;fill-rule:evenodd;stroke:none;stroke-width:1px;stroke-linecap:butt;stroke-linejoin:miter;stroke-opacity:1"
       id="path3827" />
    <path
       d="M 254.42319,145.87236 C 259.54878,134.31618 262.15821,148.5068 254.42319,145.87236 z "
       style="fill:#455b2e;fill-opacity:1;fill-rule:evenodd;stroke:none;stroke-width:1px;stroke-linecap:butt;stroke-linejoin:miter;stroke-opacity:1"
       id="path5599" />
    <path
       d="M 457.01581,150.41013 C 461.0789,137.35395 466.12583,149.23207 457.01581,150.41013 z "
       style="fill:#455b2e;fill-opacity:1;fill-rule:evenodd;stroke:none;stroke-width:1px;stroke-linecap:butt;stroke-linejoin:miter;stroke-opacity:1"
       id="path5601" />
  </g>
</svg>
