<svg width="1440" height="900" xmlns="http://www.w3.org/2000/svg"><path d="M750,486L893,583L842,473Z" fill="rgb(145,54,167)" stroke="rgb(145,54,167)" stroke-width="1.51"></path><path d="M750,486L730,612L893,583Z" fill="rgb(143,54,167)" stroke="rgb(143,54,167)" stroke-width="1.51"></path><path d="M893,583L1011,428L842,473Z" fill="rgb(142,55,167)" stroke="rgb(142,55,167)" stroke-width="1.51"></path><path d="M1001,760L1019,601L893,583Z" fill="rgb(123,59,167)" stroke="rgb(123,59,167)" stroke-width="1.51"></path><path d="M730,612L839,791L893,583Z" fill="rgb(130,57,167)" stroke="rgb(130,57,167)" stroke-width="1.51"></path><path d="M1019,601L1011,428L893,583Z" fill="rgb(133,57,167)" stroke="rgb(133,57,167)" stroke-width="1.51"></path><path d="M842,473L750,276L750,486Z" fill="rgb(151,51,167)" stroke="rgb(151,51,167)" stroke-width="1.51"></path><path d="M750,486L560,568L730,612Z" fill="rgb(146,53,167)" stroke="rgb(146,53,167)" stroke-width="1.51"></path><path d="M730,612L702,784L839,791Z" fill="rgb(128,58,167)" stroke="rgb(128,58,167)" stroke-width="1.51"></path><path d="M592,749L702,784L730,612Z" fill="rgb(130,57,167)" stroke="rgb(130,57,167)" stroke-width="1.51"></path><path d="M839,791L1001,760L893,583Z" fill="rgb(120,60,167)" stroke="rgb(120,60,167)" stroke-width="1.51"></path><path d="M911,280L750,276L842,473Z" fill="rgb(144,52,167)" stroke="rgb(144,52,167)" stroke-width="1.51"></path><path d="M750,486L541,422L560,568Z" fill="rgb(149,51,167)" stroke="rgb(149,51,167)" stroke-width="1.51"></path><path d="M560,568L592,749L730,612Z" fill="rgb(135,55,167)" stroke="rgb(135,55,167)" stroke-width="1.51"></path><path d="M1011,428L911,280L842,473Z" fill="rgb(142,53,167)" stroke="rgb(142,53,167)" stroke-width="1.51"></path><path d="M750,276L541,422L750,486Z" fill="rgb(152,49,167)" stroke="rgb(152,49,167)" stroke-width="1.51"></path><path d="M1011,428L1003,302L911,280Z" fill="rgb(135,54,167)" stroke="rgb(135,54,167)" stroke-width="1.51"></path><path d="M1019,601L1173,421L1011,428Z" fill="rgb(133,57,167)" stroke="rgb(133,57,167)" stroke-width="1.51"></path><path d="M1011,428L1173,421L1003,302Z" fill="rgb(133,56,167)" stroke="rgb(133,56,167)" stroke-width="1.51"></path><path d="M1001,760L1182,599L1019,601Z" fill="rgb(116,61,167)" stroke="rgb(116,61,167)" stroke-width="1.51"></path><path d="M541,422L444,429L560,568Z" fill="rgb(148,50,167)" stroke="rgb(148,50,167)" stroke-width="1.51"></path><path d="M560,568L410,729L592,749Z" fill="rgb(127,56,167)" stroke="rgb(127,56,167)" stroke-width="1.51"></path><path d="M529,265L444,429L541,422Z" fill="rgb(145,49,167)" stroke="rgb(145,49,167)" stroke-width="1.51"></path><path d="M839,791L1010,935L1001,760Z" fill="rgb(104,63,167)" stroke="rgb(104,63,167)" stroke-width="1.51"></path><path d="M1001,760L1188,790L1182,599Z" fill="rgb(105,63,167)" stroke="rgb(105,63,167)" stroke-width="1.51"></path><path d="M686,925L853,939L839,791Z" fill="rgb(109,62,167)" stroke="rgb(109,62,167)" stroke-width="1.51"></path><path d="M686,925L839,791L702,784Z" fill="rgb(118,60,167)" stroke="rgb(118,60,167)" stroke-width="1.51"></path><path d="M584,929L686,925L702,784Z" fill="rgb(112,61,167)" stroke="rgb(112,61,167)" stroke-width="1.51"></path><path d="M1182,599L1173,421L1019,601Z" fill="rgb(124,59,167)" stroke="rgb(124,59,167)" stroke-width="1.51"></path><path d="M444,429L411,566L560,568Z" fill="rgb(141,52,167)" stroke="rgb(141,52,167)" stroke-width="1.51"></path><path d="M592,749L584,929L702,784Z" fill="rgb(117,59,167)" stroke="rgb(117,59,167)" stroke-width="1.51"></path><path d="M750,276L529,265L541,422Z" fill="rgb(146,49,167)" stroke="rgb(146,49,167)" stroke-width="1.51"></path><path d="M582,174L529,265L750,276Z" fill="rgb(141,49,167)" stroke="rgb(141,49,167)" stroke-width="1.51"></path><path d="M846,147L729,157L750,276Z" fill="rgb(139,50,167)" stroke="rgb(139,50,167)" stroke-width="1.51"></path><path d="M846,147L750,276L911,280Z" fill="rgb(137,51,167)" stroke="rgb(137,51,167)" stroke-width="1.51"></path><path d="M1051,165L846,147L911,280Z" fill="rgb(129,53,167)" stroke="rgb(129,53,167)" stroke-width="1.51"></path><path d="M1051,165L911,280L1003,302Z" fill="rgb(129,54,167)" stroke="rgb(129,54,167)" stroke-width="1.51"></path><path d="M853,939L1010,935L839,791Z" fill="rgb(101,63,167)" stroke="rgb(101,63,167)" stroke-width="1.51"></path><path d="M411,566L410,729L560,568Z" fill="rgb(131,54,167)" stroke="rgb(131,54,167)" stroke-width="1.51"></path><path d="M378,887L584,929L592,749Z" fill="rgb(109,60,167)" stroke="rgb(109,60,167)" stroke-width="1.51"></path><path d="M686,925L707,1036L853,939Z" fill="rgb(111,61,167)" stroke="rgb(111,61,167)" stroke-width="1.51"></path><path d="M729,157L582,174L750,276Z" fill="rgb(141,49,167)" stroke="rgb(141,49,167)" stroke-width="1.51"></path><path d="M1010,935L1188,790L1001,760Z" fill="rgb(96,64,167)" stroke="rgb(96,64,167)" stroke-width="1.51"></path><path d="M1173,421L1177,284L1003,302Z" fill="rgb(126,56,167)" stroke="rgb(126,56,167)" stroke-width="1.51"></path><path d="M1368,312L1177,284L1173,421Z" fill="rgb(118,58,167)" stroke="rgb(118,58,167)" stroke-width="1.51"></path><path d="M1370,479L1173,421L1182,599Z" fill="rgb(120,60,167)" stroke="rgb(120,60,167)" stroke-width="1.51"></path><path d="M1177,284L1051,165L1003,302Z" fill="rgb(123,56,167)" stroke="rgb(123,56,167)" stroke-width="1.51"></path><path d="M374,179L413,278L529,265Z" fill="rgb(134,49,167)" stroke="rgb(134,49,167)" stroke-width="1.51"></path><path d="M529,265L413,278L444,429Z" fill="rgb(140,49,167)" stroke="rgb(140,49,167)" stroke-width="1.51"></path><path d="M272,443L285,571L411,566Z" fill="rgb(135,51,167)" stroke="rgb(135,51,167)" stroke-width="1.51"></path><path d="M584,929L707,1036L686,925Z" fill="rgb(109,61,167)" stroke="rgb(109,61,167)" stroke-width="1.51"></path><path d="M853,939L890,1041L1010,935Z" fill="rgb(98,63,167)" stroke="rgb(98,63,167)" stroke-width="1.51"></path><path d="M707,1036L890,1041L853,939Z" fill="rgb(106,62,167)" stroke="rgb(106,62,167)" stroke-width="1.51"></path><path d="M1010,935L1145,947L1188,790Z" fill="rgb(84,65,167)" stroke="rgb(84,65,167)" stroke-width="1.51"></path><path d="M1063,1059L1145,947L1010,935Z" fill="rgb(86,65,167)" stroke="rgb(86,65,167)" stroke-width="1.51"></path><path d="M272,443L411,566L444,429Z" fill="rgb(142,50,167)" stroke="rgb(142,50,167)" stroke-width="1.51"></path><path d="M411,566L285,571L410,729Z" fill="rgb(127,54,167)" stroke="rgb(127,54,167)" stroke-width="1.51"></path><path d="M584,929L535,1093L707,1036Z" fill="rgb(108,61,167)" stroke="rgb(108,61,167)" stroke-width="1.51"></path><path d="M410,729L378,887L592,749Z" fill="rgb(113,58,167)" stroke="rgb(113,58,167)" stroke-width="1.51"></path><path d="M238,771L378,887L410,729Z" fill="rgb(107,58,167)" stroke="rgb(107,58,167)" stroke-width="1.51"></path><path d="M846,147L857,14L729,157Z" fill="rgb(130,51,167)" stroke="rgb(130,51,167)" stroke-width="1.51"></path><path d="M729,157L706,6L582,174Z" fill="rgb(135,49,167)" stroke="rgb(135,49,167)" stroke-width="1.51"></path><path d="M1051,165L857,14L846,147Z" fill="rgb(124,53,167)" stroke="rgb(124,53,167)" stroke-width="1.51"></path><path d="M413,278L272,443L444,429Z" fill="rgb(140,49,167)" stroke="rgb(140,49,167)" stroke-width="1.51"></path><path d="M1326,794L1182,599L1188,790Z" fill="rgb(95,64,167)" stroke="rgb(95,64,167)" stroke-width="1.51"></path><path d="M1326,794L1359,588L1182,599Z" fill="rgb(99,63,167)" stroke="rgb(99,63,167)" stroke-width="1.51"></path><path d="M1051,165L1028,-36L857,14Z" fill="rgb(116,54,167)" stroke="rgb(116,54,167)" stroke-width="1.51"></path><path d="M1177,284L1210,176L1051,165Z" fill="rgb(115,57,167)" stroke="rgb(115,57,167)" stroke-width="1.51"></path><path d="M1302,162L1210,176L1177,284Z" fill="rgb(110,58,167)" stroke="rgb(110,58,167)" stroke-width="1.51"></path><path d="M857,14L706,6L729,157Z" fill="rgb(130,50,167)" stroke="rgb(130,50,167)" stroke-width="1.51"></path><path d="M582,174L374,179L529,265Z" fill="rgb(134,49,167)" stroke="rgb(134,49,167)" stroke-width="1.51"></path><path d="M907,1232L1063,1059L890,1041Z" fill="rgb(96,64,167)" stroke="rgb(96,64,167)" stroke-width="1.51"></path><path d="M890,1041L1063,1059L1010,935Z" fill="rgb(93,64,167)" stroke="rgb(93,64,167)" stroke-width="1.51"></path><path d="M1359,588L1370,479L1182,599Z" fill="rgb(110,61,167)" stroke="rgb(110,61,167)" stroke-width="1.51"></path><path d="M1347,898L1188,790L1145,947Z" fill="rgb(76,66,167)" stroke="rgb(76,66,167)" stroke-width="1.51"></path><path d="M1347,898L1326,794L1188,790Z" fill="rgb(78,66,167)" stroke="rgb(78,66,167)" stroke-width="1.51"></path><path d="M413,278L241,295L272,443Z" fill="rgb(135,49,167)" stroke="rgb(135,49,167)" stroke-width="1.51"></path><path d="M443,12L374,179L582,174Z" fill="rgb(127,49,167)" stroke="rgb(127,49,167)" stroke-width="1.51"></path><path d="M706,6L542,26L582,174Z" fill="rgb(130,49,167)" stroke="rgb(130,49,167)" stroke-width="1.51"></path><path d="M387,1046L535,1093L584,929Z" fill="rgb(103,61,167)" stroke="rgb(103,61,167)" stroke-width="1.51"></path><path d="M707,1036L754,1196L890,1041Z" fill="rgb(108,62,167)" stroke="rgb(108,62,167)" stroke-width="1.51"></path><path d="M285,571L238,771L410,729Z" fill="rgb(118,56,167)" stroke="rgb(118,56,167)" stroke-width="1.51"></path><path d="M378,887L387,1046L584,929Z" fill="rgb(101,60,167)" stroke="rgb(101,60,167)" stroke-width="1.51"></path><path d="M94,602L238,771L285,571Z" fill="rgb(118,55,167)" stroke="rgb(118,55,167)" stroke-width="1.51"></path><path d="M1370,479L1368,312L1173,421Z" fill="rgb(119,59,167)" stroke="rgb(119,59,167)" stroke-width="1.51"></path><path d="M272,443L108,485L285,571Z" fill="rgb(133,51,167)" stroke="rgb(133,51,167)" stroke-width="1.51"></path><path d="M374,179L241,295L413,278Z" fill="rgb(131,49,167)" stroke="rgb(131,49,167)" stroke-width="1.51"></path><path d="M241,140L241,295L374,179Z" fill="rgb(126,49,167)" stroke="rgb(126,49,167)" stroke-width="1.51"></path><path d="M840,-159L694,-129L706,6Z" fill="rgb(128,50,167)" stroke="rgb(128,50,167)" stroke-width="1.51"></path><path d="M596,-158L443,12L542,26Z" fill="rgb(122,49,167)" stroke="rgb(122,49,167)" stroke-width="1.51"></path><path d="M1158,23L1028,-36L1051,165Z" fill="rgb(109,55,167)" stroke="rgb(109,55,167)" stroke-width="1.51"></path><path d="M1158,23L1051,165L1210,176Z" fill="rgb(110,56,167)" stroke="rgb(110,56,167)" stroke-width="1.51"></path><path d="M1368,312L1302,162L1177,284Z" fill="rgb(110,58,167)" stroke="rgb(110,58,167)" stroke-width="1.51"></path><path d="M1302,162L1158,23L1210,176Z" fill="rgb(104,57,167)" stroke="rgb(104,57,167)" stroke-width="1.51"></path><path d="M1316,1072L1347,898L1145,947Z" fill="rgb(68,66,167)" stroke="rgb(68,66,167)" stroke-width="1.51"></path><path d="M1514,608L1510,478L1359,588Z" fill="rgb(100,63,167)" stroke="rgb(100,63,167)" stroke-width="1.51"></path><path d="M1359,588L1510,478L1370,479Z" fill="rgb(107,62,167)" stroke="rgb(107,62,167)" stroke-width="1.51"></path><path d="M1063,1059L1191,1070L1145,947Z" fill="rgb(81,65,167)" stroke="rgb(81,65,167)" stroke-width="1.51"></path><path d="M1155,1204L1191,1070L1063,1059Z" fill="rgb(80,65,167)" stroke="rgb(80,65,167)" stroke-width="1.51"></path><path d="M604,1206L754,1196L707,1036Z" fill="rgb(111,61,167)" stroke="rgb(111,61,167)" stroke-width="1.51"></path><path d="M535,1093L604,1206L707,1036Z" fill="rgb(108,61,167)" stroke="rgb(108,61,167)" stroke-width="1.51"></path><path d="M276,1064L387,1046L378,887Z" fill="rgb(96,60,167)" stroke="rgb(96,60,167)" stroke-width="1.51"></path><path d="M238,771L244,878L378,887Z" fill="rgb(99,59,167)" stroke="rgb(99,59,167)" stroke-width="1.51"></path><path d="M542,26L443,12L582,174Z" fill="rgb(126,49,167)" stroke="rgb(126,49,167)" stroke-width="1.51"></path><path d="M596,-158L542,26L706,6Z" fill="rgb(125,49,167)" stroke="rgb(125,49,167)" stroke-width="1.51"></path><path d="M417,1185L604,1206L535,1093Z" fill="rgb(103,61,167)" stroke="rgb(103,61,167)" stroke-width="1.51"></path><path d="M604,1206L907,1232L754,1196Z" fill="rgb(110,62,167)" stroke="rgb(110,62,167)" stroke-width="1.51"></path><path d="M754,1196L907,1232L890,1041Z" fill="rgb(103,62,167)" stroke="rgb(103,62,167)" stroke-width="1.51"></path><path d="M840,-159L706,6L857,14Z" fill="rgb(125,51,167)" stroke="rgb(125,51,167)" stroke-width="1.51"></path><path d="M251,-5L241,140L374,179Z" fill="rgb(119,49,167)" stroke="rgb(119,49,167)" stroke-width="1.51"></path><path d="M115,324L108,485L272,443Z" fill="rgb(134,49,167)" stroke="rgb(134,49,167)" stroke-width="1.51"></path><path d="M115,324L272,443L241,295Z" fill="rgb(132,49,167)" stroke="rgb(132,49,167)" stroke-width="1.51"></path><path d="M238,771L104,780L244,878Z" fill="rgb(99,58,167)" stroke="rgb(99,58,167)" stroke-width="1.51"></path><path d="M1368,312L1475,108L1302,162Z" fill="rgb(98,59,167)" stroke="rgb(98,59,167)" stroke-width="1.51"></path><path d="M1370,479L1510,478L1368,312Z" fill="rgb(112,61,167)" stroke="rgb(112,61,167)" stroke-width="1.51"></path><path d="M1486,755L1359,588L1326,794Z" fill="rgb(85,65,167)" stroke="rgb(85,65,167)" stroke-width="1.51"></path><path d="M1347,898L1486,755L1326,794Z" fill="rgb(70,66,167)" stroke="rgb(70,66,167)" stroke-width="1.51"></path><path d="M1526,936L1486,755L1347,898Z" fill="rgb(56,67,167)" stroke="rgb(56,67,167)" stroke-width="1.51"></path><path d="M907,1232L1042,1225L1063,1059Z" fill="rgb(91,64,167)" stroke="rgb(91,64,167)" stroke-width="1.51"></path><path d="M1486,755L1514,608L1359,588Z" fill="rgb(89,64,167)" stroke="rgb(89,64,167)" stroke-width="1.51"></path><path d="M108,485L94,602L285,571Z" fill="rgb(125,52,167)" stroke="rgb(125,52,167)" stroke-width="1.51"></path><path d="M999,-140L840,-159L857,14Z" fill="rgb(118,52,167)" stroke="rgb(118,52,167)" stroke-width="1.51"></path><path d="M999,-140L857,14L1028,-36Z" fill="rgb(114,53,167)" stroke="rgb(114,53,167)" stroke-width="1.51"></path><path d="M1196,-149L1028,-36L1158,23Z" fill="rgb(103,56,167)" stroke="rgb(103,56,167)" stroke-width="1.51"></path><path d="M1196,-149L999,-140L1028,-36Z" fill="rgb(106,55,167)" stroke="rgb(106,55,167)" stroke-width="1.51"></path><path d="M1191,1070L1316,1072L1145,947Z" fill="rgb(73,66,167)" stroke="rgb(73,66,167)" stroke-width="1.51"></path><path d="M1309,1188L1316,1072L1191,1070Z" fill="rgb(68,66,167)" stroke="rgb(68,66,167)" stroke-width="1.51"></path><path d="M108,485L-40,615L94,602Z" fill="rgb(120,52,167)" stroke="rgb(120,52,167)" stroke-width="1.51"></path><path d="M103,130L115,324L241,295Z" fill="rgb(123,49,167)" stroke="rgb(123,49,167)" stroke-width="1.51"></path><path d="M387,1046L417,1185L535,1093Z" fill="rgb(100,60,167)" stroke="rgb(100,60,167)" stroke-width="1.51"></path><path d="M244,878L276,1064L378,887Z" fill="rgb(93,60,167)" stroke="rgb(93,60,167)" stroke-width="1.51"></path><path d="M130,1038L276,1064L244,878Z" fill="rgb(89,60,167)" stroke="rgb(89,60,167)" stroke-width="1.51"></path><path d="M1042,1225L1155,1204L1063,1059Z" fill="rgb(85,65,167)" stroke="rgb(85,65,167)" stroke-width="1.51"></path><path d="M94,602L104,780L238,771Z" fill="rgb(108,56,167)" stroke="rgb(108,56,167)" stroke-width="1.51"></path><path d="M276,1064L417,1185L387,1046Z" fill="rgb(96,60,167)" stroke="rgb(96,60,167)" stroke-width="1.51"></path><path d="M694,-129L596,-158L706,6Z" fill="rgb(127,49,167)" stroke="rgb(127,49,167)" stroke-width="1.51"></path><path d="M443,12L251,-5L374,179Z" fill="rgb(119,49,167)" stroke="rgb(119,49,167)" stroke-width="1.51"></path><path d="M840,-159L596,-158L694,-129Z" fill="rgb(129,49,167)" stroke="rgb(129,49,167)" stroke-width="1.51"></path><path d="M1510,478L1520,298L1368,312Z" fill="rgb(106,61,167)" stroke="rgb(106,61,167)" stroke-width="1.51"></path><path d="M1302,162L1299,-26L1158,23Z" fill="rgb(98,58,167)" stroke="rgb(98,58,167)" stroke-width="1.51"></path><path d="M1617,424L1520,298L1510,478Z" fill="rgb(109,61,167)" stroke="rgb(109,61,167)" stroke-width="1.51"></path><path d="M1475,108L1299,-26L1302,162Z" fill="rgb(92,59,167)" stroke="rgb(92,59,167)" stroke-width="1.51"></path><path d="M104,780L113,918L244,878Z" fill="rgb(92,59,167)" stroke="rgb(92,59,167)" stroke-width="1.51"></path><path d="M241,140L103,130L241,295Z" fill="rgb(121,49,167)" stroke="rgb(121,49,167)" stroke-width="1.51"></path><path d="M401,-159L251,-5L443,12Z" fill="rgb(115,49,167)" stroke="rgb(115,49,167)" stroke-width="1.51"></path><path d="M1520,298L1475,108L1368,312Z" fill="rgb(97,60,167)" stroke="rgb(97,60,167)" stroke-width="1.51"></path><path d="M1307,-161L1196,-149L1299,-26Z" fill="rgb(92,58,167)" stroke="rgb(92,58,167)" stroke-width="1.51"></path><path d="M1299,-26L1196,-149L1158,23Z" fill="rgb(96,57,167)" stroke="rgb(96,57,167)" stroke-width="1.51"></path><path d="M999,-140L1196,-149L840,-159Z" fill="rgb(110,54,167)" stroke="rgb(110,54,167)" stroke-width="1.51"></path><path d="M1155,1204L1309,1188L1191,1070Z" fill="rgb(73,66,167)" stroke="rgb(73,66,167)" stroke-width="1.51"></path><path d="M1486,1044L1526,936L1347,898Z" fill="rgb(49,67,167)" stroke="rgb(49,67,167)" stroke-width="1.51"></path><path d="M1496,1251L1309,1188L1155,1204Z" fill="rgb(63,67,167)" stroke="rgb(63,67,167)" stroke-width="1.51"></path><path d="M1486,1044L1347,898L1316,1072Z" fill="rgb(56,67,167)" stroke="rgb(56,67,167)" stroke-width="1.51"></path><path d="M1680,729L1624,575L1514,608Z" fill="rgb(90,64,167)" stroke="rgb(90,64,167)" stroke-width="1.51"></path><path d="M1514,608L1624,575L1510,478Z" fill="rgb(100,63,167)" stroke="rgb(100,63,167)" stroke-width="1.51"></path><path d="M1680,729L1514,608L1486,755Z" fill="rgb(82,65,167)" stroke="rgb(82,65,167)" stroke-width="1.51"></path><path d="M1520,298L1651,106L1475,108Z" fill="rgb(92,60,167)" stroke="rgb(92,60,167)" stroke-width="1.51"></path><path d="M1624,575L1617,424L1510,478Z" fill="rgb(108,62,167)" stroke="rgb(108,62,167)" stroke-width="1.51"></path><path d="M267,-198L401,-159L596,-158Z" fill="rgb(117,49,167)" stroke="rgb(117,49,167)" stroke-width="1.51"></path><path d="M596,-158L401,-159L443,12Z" fill="rgb(120,49,167)" stroke="rgb(120,49,167)" stroke-width="1.51"></path><path d="M71,-25L103,130L251,-5Z" fill="rgb(108,49,167)" stroke="rgb(108,49,167)" stroke-width="1.51"></path><path d="M251,-5L103,130L241,140Z" fill="rgb(114,49,167)" stroke="rgb(114,49,167)" stroke-width="1.51"></path><path d="M115,324L-15,420L108,485Z" fill="rgb(130,49,167)" stroke="rgb(130,49,167)" stroke-width="1.51"></path><path d="M113,918L130,1038L244,878Z" fill="rgb(86,60,167)" stroke="rgb(86,60,167)" stroke-width="1.51"></path><path d="M276,1064L276,1196L417,1185Z" fill="rgb(95,60,167)" stroke="rgb(95,60,167)" stroke-width="1.51"></path><path d="M130,1038L276,1196L276,1064Z" fill="rgb(90,60,167)" stroke="rgb(90,60,167)" stroke-width="1.51"></path><path d="M417,1185L81,1254L604,1206Z" fill="rgb(96,60,167)" stroke="rgb(96,60,167)" stroke-width="1.51"></path><path d="M604,1206L81,1254L907,1232Z" fill="rgb(104,61,167)" stroke="rgb(104,61,167)" stroke-width="1.51"></path><path d="M-46,261L-15,420L115,324Z" fill="rgb(123,49,167)" stroke="rgb(123,49,167)" stroke-width="1.51"></path><path d="M94,602L-40,615L104,780Z" fill="rgb(109,55,167)" stroke="rgb(109,55,167)" stroke-width="1.51"></path><path d="M104,780L-71,905L113,918Z" fill="rgb(84,59,167)" stroke="rgb(84,59,167)" stroke-width="1.51"></path><path d="M113,918L-84,1059L130,1038Z" fill="rgb(81,59,167)" stroke="rgb(81,59,167)" stroke-width="1.51"></path><path d="M1309,1188L1486,1044L1316,1072Z" fill="rgb(58,67,167)" stroke="rgb(58,67,167)" stroke-width="1.51"></path><path d="M-15,420L-40,615L108,485Z" fill="rgb(125,51,167)" stroke="rgb(125,51,167)" stroke-width="1.51"></path><path d="M1617,424L1636,319L1520,298Z" fill="rgb(105,61,167)" stroke="rgb(105,61,167)" stroke-width="1.51"></path><path d="M1793,412L1636,319L1617,424Z" fill="rgb(108,61,167)" stroke="rgb(108,61,167)" stroke-width="1.51"></path><path d="M1475,108L1480,3L1299,-26Z" fill="rgb(82,59,167)" stroke="rgb(82,59,167)" stroke-width="1.51"></path><path d="M1612,-21L1480,3L1475,108Z" fill="rgb(80,59,167)" stroke="rgb(80,59,167)" stroke-width="1.51"></path><path d="M1472,-150L1307,-161L1299,-26Z" fill="rgb(85,58,167)" stroke="rgb(85,58,167)" stroke-width="1.51"></path><path d="M1196,-149L1307,-161L840,-159Z" fill="rgb(104,56,167)" stroke="rgb(104,56,167)" stroke-width="1.51"></path><path d="M840,-159L267,-198L596,-158Z" fill="rgb(124,49,167)" stroke="rgb(124,49,167)" stroke-width="1.51"></path><path d="M-40,615L-47,768L104,780Z" fill="rgb(101,56,167)" stroke="rgb(101,56,167)" stroke-width="1.51"></path><path d="M1624,575L1767,590L1617,424Z" fill="rgb(103,62,167)" stroke="rgb(103,62,167)" stroke-width="1.51"></path><path d="M1657,894L1680,729L1486,755Z" fill="rgb(68,66,167)" stroke="rgb(68,66,167)" stroke-width="1.51"></path><path d="M1657,894L1486,755L1526,936Z" fill="rgb(57,67,167)" stroke="rgb(57,67,167)" stroke-width="1.51"></path><path d="M-15,420L-195,572L-40,615Z" fill="rgb(121,52,167)" stroke="rgb(121,52,167)" stroke-width="1.51"></path><path d="M-188,890L-71,905L-47,768Z" fill="rgb(84,58,167)" stroke="rgb(84,58,167)" stroke-width="1.51"></path><path d="M103,130L-46,261L115,324Z" fill="rgb(118,49,167)" stroke="rgb(118,49,167)" stroke-width="1.51"></path><path d="M-56,130L-46,261L103,130Z" fill="rgb(111,49,167)" stroke="rgb(111,49,167)" stroke-width="1.51"></path><path d="M1626,1050L1657,894L1526,936Z" fill="rgb(49,67,167)" stroke="rgb(49,67,167)" stroke-width="1.51"></path><path d="M401,-159L267,-198L251,-5Z" fill="rgb(112,49,167)" stroke="rgb(112,49,167)" stroke-width="1.51"></path><path d="M1307,-161L267,-198L840,-159Z" fill="rgb(124,51,167)" stroke="rgb(124,51,167)" stroke-width="1.51"></path><path d="M100,-154L71,-25L251,-5Z" fill="rgb(106,49,167)" stroke="rgb(106,49,167)" stroke-width="1.51"></path><path d="M-224,724L-47,768L-40,615Z" fill="rgb(103,56,167)" stroke="rgb(103,56,167)" stroke-width="1.51"></path><path d="M-47,768L-71,905L104,780Z" fill="rgb(89,58,167)" stroke="rgb(89,58,167)" stroke-width="1.51"></path><path d="M130,1038L81,1254L276,1196Z" fill="rgb(86,60,167)" stroke="rgb(86,60,167)" stroke-width="1.51"></path><path d="M1486,1044L1626,1050L1526,936Z" fill="rgb(49,67,167)" stroke="rgb(49,67,167)" stroke-width="1.51"></path><path d="M1606,1186L1626,1050L1486,1044Z" fill="rgb(49,67,167)" stroke="rgb(49,67,167)" stroke-width="1.51"></path><path d="M1769,121L1651,106L1636,319Z" fill="rgb(93,60,167)" stroke="rgb(93,60,167)" stroke-width="1.51"></path><path d="M1636,319L1651,106L1520,298Z" fill="rgb(98,60,167)" stroke="rgb(98,60,167)" stroke-width="1.51"></path><path d="M1480,3L1472,-150L1299,-26Z" fill="rgb(80,59,167)" stroke="rgb(80,59,167)" stroke-width="1.51"></path><path d="M1680,729L1767,590L1624,575Z" fill="rgb(91,64,167)" stroke="rgb(91,64,167)" stroke-width="1.51"></path><path d="M1827,722L1767,590L1680,729Z" fill="rgb(85,65,167)" stroke="rgb(85,65,167)" stroke-width="1.51"></path><path d="M1785,886L1680,729L1657,894Z" fill="rgb(61,67,167)" stroke="rgb(61,67,167)" stroke-width="1.51"></path><path d="M-234,487L-195,572L-15,420Z" fill="rgb(125,51,167)" stroke="rgb(125,51,167)" stroke-width="1.51"></path><path d="M71,-25L-56,130L103,130Z" fill="rgb(107,49,167)" stroke="rgb(107,49,167)" stroke-width="1.51"></path><path d="M1612,-21L1472,-150L1480,3Z" fill="rgb(78,59,167)" stroke="rgb(78,59,167)" stroke-width="1.51"></path><path d="M907,1232L1496,1251L1042,1225Z" fill="rgb(80,65,167)" stroke="rgb(80,65,167)" stroke-width="1.51"></path><path d="M1042,1225L1496,1251L1155,1204Z" fill="rgb(72,66,167)" stroke="rgb(72,66,167)" stroke-width="1.51"></path><path d="M1309,1188L1496,1251L1486,1044Z" fill="rgb(51,67,167)" stroke="rgb(51,67,167)" stroke-width="1.51"></path><path d="M1651,106L1612,-21L1475,108Z" fill="rgb(83,59,167)" stroke="rgb(83,59,167)" stroke-width="1.51"></path><path d="M1767,590L1793,412L1617,424Z" fill="rgb(109,62,167)" stroke="rgb(109,62,167)" stroke-width="1.51"></path><path d="M1651,106L1812,-47L1612,-21Z" fill="rgb(79,59,167)" stroke="rgb(79,59,167)" stroke-width="1.51"></path><path d="M71,-25L-58,-19L-56,130Z" fill="rgb(101,49,167)" stroke="rgb(101,49,167)" stroke-width="1.51"></path><path d="M267,-198L100,-154L251,-5Z" fill="rgb(108,49,167)" stroke="rgb(108,49,167)" stroke-width="1.51"></path><path d="M-234,487L-15,420L-229,317Z" fill="rgb(127,49,167)" stroke="rgb(127,49,167)" stroke-width="1.51"></path><path d="M-84,1059L81,1254L130,1038Z" fill="rgb(80,59,167)" stroke="rgb(80,59,167)" stroke-width="1.51"></path><path d="M276,1196L81,1254L417,1185Z" fill="rgb(91,60,167)" stroke="rgb(91,60,167)" stroke-width="1.51"></path><path d="M907,1232L81,1254L1496,1251Z" fill="rgb(105,63,167)" stroke="rgb(105,63,167)" stroke-width="1.51"></path><path d="M1496,1251L1606,1186L1486,1044Z" fill="rgb(49,67,167)" stroke="rgb(49,67,167)" stroke-width="1.51"></path><path d="M1821,1029L1785,886L1657,894Z" fill="rgb(49,67,167)" stroke="rgb(49,67,167)" stroke-width="1.51"></path><path d="M-206,1038L-84,1059L-71,905Z" fill="rgb(78,59,167)" stroke="rgb(78,59,167)" stroke-width="1.51"></path><path d="M-71,905L-84,1059L113,918Z" fill="rgb(78,59,167)" stroke="rgb(78,59,167)" stroke-width="1.51"></path><path d="M1767,590L1827,722L1793,412Z" fill="rgb(98,63,167)" stroke="rgb(98,63,167)" stroke-width="1.51"></path><path d="M1821,1029L1657,894L1626,1050Z" fill="rgb(49,67,167)" stroke="rgb(49,67,167)" stroke-width="1.51"></path><path d="M1785,886L1827,722L1680,729Z" fill="rgb(71,66,167)" stroke="rgb(71,66,167)" stroke-width="1.51"></path><path d="M-24,-181L-58,-19L71,-25Z" fill="rgb(99,49,167)" stroke="rgb(99,49,167)" stroke-width="1.51"></path><path d="M-229,317L-15,420L-46,261Z" fill="rgb(122,49,167)" stroke="rgb(122,49,167)" stroke-width="1.51"></path><path d="M-229,317L-46,261L-177,149Z" fill="rgb(116,49,167)" stroke="rgb(116,49,167)" stroke-width="1.51"></path><path d="M-195,572L-224,724L-40,615Z" fill="rgb(110,54,167)" stroke="rgb(110,54,167)" stroke-width="1.51"></path><path d="M-234,487L-224,724L-195,572Z" fill="rgb(115,53,167)" stroke="rgb(115,53,167)" stroke-width="1.51"></path><path d="M1793,412L1824,315L1636,319Z" fill="rgb(105,61,167)" stroke="rgb(105,61,167)" stroke-width="1.51"></path><path d="M1827,722L1824,315L1793,412Z" fill="rgb(109,62,167)" stroke="rgb(109,62,167)" stroke-width="1.51"></path><path d="M-224,724L-188,890L-47,768Z" fill="rgb(92,58,167)" stroke="rgb(92,58,167)" stroke-width="1.51"></path><path d="M1824,315L1769,121L1636,319Z" fill="rgb(98,60,167)" stroke="rgb(98,60,167)" stroke-width="1.51"></path><path d="M1612,-21L1650,-157L1472,-150Z" fill="rgb(78,59,167)" stroke="rgb(78,59,167)" stroke-width="1.51"></path><path d="M-177,149L-46,261L-56,130Z" fill="rgb(112,49,167)" stroke="rgb(112,49,167)" stroke-width="1.51"></path><path d="M-171,-25L-177,149L-56,130Z" fill="rgb(105,49,167)" stroke="rgb(105,49,167)" stroke-width="1.51"></path><path d="M-84,1059L-69,1222L81,1254Z" fill="rgb(78,59,167)" stroke="rgb(78,59,167)" stroke-width="1.51"></path><path d="M-203,1249L-69,1222L-84,1059Z" fill="rgb(78,59,167)" stroke="rgb(78,59,167)" stroke-width="1.51"></path><path d="M1812,-47L1650,-157L1612,-21Z" fill="rgb(78,59,167)" stroke="rgb(78,59,167)" stroke-width="1.51"></path><path d="M1472,-150L1650,-157L1307,-161Z" fill="rgb(78,59,167)" stroke="rgb(78,59,167)" stroke-width="1.51"></path><path d="M1307,-161L1802,-169L267,-198Z" fill="rgb(103,56,167)" stroke="rgb(103,56,167)" stroke-width="1.51"></path><path d="M-58,-19L-171,-25L-56,130Z" fill="rgb(101,49,167)" stroke="rgb(101,49,167)" stroke-width="1.51"></path><path d="M100,-154L-24,-181L71,-25Z" fill="rgb(101,49,167)" stroke="rgb(101,49,167)" stroke-width="1.51"></path><path d="M267,-198L-24,-181L100,-154Z" fill="rgb(104,49,167)" stroke="rgb(104,49,167)" stroke-width="1.51"></path><path d="M1807,1182L1821,1029L1626,1050Z" fill="rgb(49,67,167)" stroke="rgb(49,67,167)" stroke-width="1.51"></path><path d="M1785,886L1821,1029L1827,722Z" fill="rgb(53,67,167)" stroke="rgb(53,67,167)" stroke-width="1.51"></path><path d="M-188,890L-206,1038L-71,905Z" fill="rgb(78,59,167)" stroke="rgb(78,59,167)" stroke-width="1.51"></path><path d="M-224,724L-206,1038L-188,890Z" fill="rgb(80,59,167)" stroke="rgb(80,59,167)" stroke-width="1.51"></path><path d="M-177,-173L-171,-25L-58,-19Z" fill="rgb(99,49,167)" stroke="rgb(99,49,167)" stroke-width="1.51"></path><path d="M-177,149L-171,-25L-229,317Z" fill="rgb(109,49,167)" stroke="rgb(109,49,167)" stroke-width="1.51"></path><path d="M1824,315L1812,-47L1769,121Z" fill="rgb(89,60,167)" stroke="rgb(89,60,167)" stroke-width="1.51"></path><path d="M1769,121L1812,-47L1651,106Z" fill="rgb(83,59,167)" stroke="rgb(83,59,167)" stroke-width="1.51"></path><path d="M1606,1186L1807,1182L1626,1050Z" fill="rgb(49,67,167)" stroke="rgb(49,67,167)" stroke-width="1.51"></path><path d="M1496,1251L1807,1182L1606,1186Z" fill="rgb(49,67,167)" stroke="rgb(49,67,167)" stroke-width="1.51"></path><path d="M-24,-181L-177,-173L-58,-19Z" fill="rgb(99,49,167)" stroke="rgb(99,49,167)" stroke-width="1.51"></path><path d="M-171,-25L-177,-173L-229,317Z" fill="rgb(102,49,167)" stroke="rgb(102,49,167)" stroke-width="1.51"></path><path d="M267,-198L-177,-173L-24,-181Z" fill="rgb(100,49,167)" stroke="rgb(100,49,167)" stroke-width="1.51"></path><path d="M-69,1222L-203,1249L81,1254Z" fill="rgb(78,59,167)" stroke="rgb(78,59,167)" stroke-width="1.51"></path><path d="M-206,1038L-203,1249L-84,1059Z" fill="rgb(78,59,167)" stroke="rgb(78,59,167)" stroke-width="1.51"></path><path d="M-224,724L-203,1249L-206,1038Z" fill="rgb(78,59,167)" stroke="rgb(78,59,167)" stroke-width="1.51"></path><path d="M-234,487L-203,1249L-224,724Z" fill="rgb(89,58,167)" stroke="rgb(89,58,167)" stroke-width="1.51"></path><path d="M1812,-47L1802,-169L1650,-157Z" fill="rgb(78,59,167)" stroke="rgb(78,59,167)" stroke-width="1.51"></path><path d="M1650,-157L1802,-169L1307,-161Z" fill="rgb(78,59,167)" stroke="rgb(78,59,167)" stroke-width="1.51"></path></svg>